<?xml version="1.0" encoding="utf-8"?>
<!-- Generator: Adobe Illustrator 23.0.3, SVG Export Plug-In . SVG Version: 6.00 Build 0)  -->
<svg version="1.1" id="Layer_1" xmlns="http://www.w3.org/2000/svg" xmlns:xlink="http://www.w3.org/1999/xlink" x="0px" y="0px"
	 viewBox="0 0 447.4 425.2" style="enable-background:new 0 0 447.4 425.2;" xml:space="preserve">
<style type="text/css">
	.st0{fill:#81C2EA;}
	.st1{fill:#FFC63A;}
	.st2{fill:#405761;}
	.st3{fill:#FFFFFF;}
</style>
<g>
	<g>
		<g>
			<path class="st0" d="M447.4,376.5c0-26.9-100.2-48.7-223.7-48.7C100.1,327.8,0,349.6,0,376.5c0,26.9,100.2,48.7,223.7,48.7
				S447.4,403.4,447.4,376.5"/>
			<path class="st1" d="M211.3,1.8c14.9-3.5,31-1.8,44.9,4.8c12.7,6,23.5,16,30.4,28.3c6.9,12.2,10.1,26.6,8.4,40.5
				c-1.6,12-7.1,23.2-13.7,33.2c-5.9,8.9-12.8,17-19.6,25.2c-11.5,13.9-23.2,27.6-35,41.3c-13.5-14.5-26.9-29-39.9-44
				c-8.7-10-17.1-20.5-22.5-32.7c-5.6-12.2-7.5-26.1-5.7-39.4c1.9-14.1,8.5-27.4,18.3-37.7C186.3,11.6,198.4,4.7,211.3,1.8
				 M223.5,36.4c-10.1,0.9-19.6,6.8-25,15.3c-4.5,6.8-6.2,15.2-5,23.3c1.2,8.4,5.8,16.2,12.4,21.5c5.4,4.3,12.1,6.8,18.9,7.2
				c6.8,0.4,13.7-1.3,19.5-4.8c5.3-3.2,9.7-7.9,12.6-13.5c3.9-7.5,4.7-16.5,2.4-24.6c-2.3-8.3-8-15.7-15.5-20
				C237.7,37.3,230.5,35.7,223.5,36.4"/>
			<path class="st2" d="M352.7,285.1l-2.9-8.6c-1.6-4.7-6.7-8.5-11.3-8.5h-10.4c-7.8-22.4-17.4-49.3-20.2-55.7
				c-4.3-9.9-18.2-14.3-25.8-16.4c0,0-12.7-4.9-55.2-4.9c-42.4,0-55.2,4.9-55.2,4.9c-8.9,3-21.4,7.3-26.3,16.9
				c-2.3,4.5-12.1,32.2-20,55.2h-10.3c-4.6,0-9.7,3.8-11.3,8.5l-2.9,8.6c-1.6,4.7,0.9,8.6,5.5,8.6h10.1c-1.3,3.9-2.1,6.2-2.1,6.2
				c-0.8,1.4-1.4,7.8-1.4,9.5v77.9c0,5,4,9.1,8.9,9.1h32.7c4.9,0,8.9-4.1,8.9-9.1v-16.6h126.4v16.6c0,5,4,9.1,8.9,9.1h32.7
				c4.9,0,8.9-4.1,8.9-9.1v-77.9c0-1.7-0.6-8.1-1.4-9.5c0,0-0.8-2.3-2.1-6.2h10.3C351.9,293.7,354.3,289.9,352.7,285.1"/>
			<path class="st3" d="M163.4,332.9h-13.5c-12.1,0-24.2-1.7-24.2-9.5v-9.5c0-9.1,5.2-9.5,10.8-9.5c5.5,0,16.4,4.7,23.6,8
				c7.8,3.6,16.5,6.5,16.5,12.4C176.7,330.4,173.6,332.9,163.4,332.9"/>
			<path class="st3" d="M144.6,271.5c6.7-28.1,13.9-43.9,15.5-48.3c1.3-3.2,2.5-13.1,66.7-13.1s65.8,11.3,65.9,11.5
				c2,6,9.8,24.1,16.1,50c0,0-27.1,9.4-82,9.4C171.9,280.9,144.6,271.5,144.6,271.5"/>
			<path class="st3" d="M277,324.9c0-5.9,8.8-8.8,16.5-12.4c7.2-3.2,18.1-8,23.5-8c5.6,0,10.9,0.3,10.9,9.5v9.5
				c0,7.8-12.1,9.5-24.2,9.5h-13.5C280,332.9,277,330.4,277,324.9"/>
		</g>
	</g>
</g>
</svg>
